<?xml version="1.0" encoding="UTF-8"?>
<svg id="Layer_1" xmlns="http://www.w3.org/2000/svg" viewBox="0 0 856 470">
  <defs>
    <style>
      .cls-1 {
        font-family: MarkPro-Heavy, 'Mark Pro';
        font-size: 32px;
        font-weight: 800;
      }

      .cls-1, .cls-2, .cls-3, .cls-4, .cls-5, .cls-6, .cls-7, .cls-8, .cls-9, .cls-10 {
        fill: #040505;
      }

      .cls-2 {
        font-family: MarkPro-Narrow, 'Mark Pro';
        font-size: 10px;
      }

      .cls-11 {
        stroke: #f2f2f2;
        stroke-width: 44px;
      }

      .cls-11, .cls-12, .cls-13, .cls-14, .cls-15 {
        fill: none;
        stroke-linejoin: round;
      }

      .cls-3, .cls-4, .cls-5, .cls-7 {
        font-weight: 700;
      }

      .cls-3, .cls-5, .cls-7 {
        font-size: 17px;
      }

      .cls-3, .cls-7 {
        font-family: MarkProTab-Bold, 'Mark Pro Tab';
      }

      .cls-3, .cls-16 {
        letter-spacing: 0em;
      }

      .cls-12 {
        stroke: #9db1b1;
        stroke-width: .75px;
      }

      .cls-4 {
        font-family: MarkPro-NarrowBold, 'Mark Pro';
      }

      .cls-4, .cls-10 {
        font-size: 13px;
      }

      .cls-17 {
        letter-spacing: 0em;
      }

      .cls-18 {
        letter-spacing: 0em;
      }

      .cls-19 {
        letter-spacing: 0em;
      }

      .cls-20 {
        letter-spacing: 0em;
      }

      .cls-21 {
        fill: #ffc000;
      }

      .cls-22 {
        letter-spacing: 0em;
      }

      .cls-23 {
        letter-spacing: 0em;
      }

      .cls-24 {
        letter-spacing: 0em;
      }

      .cls-5 {
        font-family: MarkProTab-NarrowBold, 'Mark Pro Tab';
      }

      .cls-25 {
        letter-spacing: 0em;
      }

      .cls-13 {
        stroke: #040505;
      }

      .cls-14 {
        stroke: #1ba39c;
      }

      .cls-14, .cls-15 {
        stroke-width: 8px;
      }

      .cls-26 {
        letter-spacing: -.03em;
      }

      .cls-27 {
        letter-spacing: -.02em;
      }

      .cls-28 {
        letter-spacing: -.02em;
      }

      .cls-29 {
        letter-spacing: -.02em;
      }

      .cls-30 {
        letter-spacing: -.01em;
      }

      .cls-31 {
        letter-spacing: -.01em;
      }

      .cls-32 {
        letter-spacing: -.01em;
      }

      .cls-33 {
        letter-spacing: -.01em;
      }

      .cls-34 {
        letter-spacing: -.02em;
      }

      .cls-35 {
        letter-spacing: -.01em;
      }

      .cls-36 {
        letter-spacing: -.01em;
      }

      .cls-37 {
        letter-spacing: -.01em;
      }

      .cls-38 {
        letter-spacing: 0em;
      }

      .cls-39 {
        letter-spacing: 0em;
      }

      .cls-40 {
        letter-spacing: 0em;
      }

      .cls-41 {
        letter-spacing: -.01em;
      }

      .cls-42 {
        fill: #00bda3;
      }

      .cls-43 {
        letter-spacing: 0em;
      }

      .cls-8 {
        fill-rule: evenodd;
      }

      .cls-9 {
        font-family: MarkPro, 'Mark Pro';
        font-size: 12px;
      }

      .cls-10 {
        font-family: MarkProTab-Narrow, 'Mark Pro Tab';
      }

      .cls-15 {
        stroke: #ffad00;
      }
    </style>
  </defs>
  <line class="cls-14" x1="151.12" y1="457.13" x2="180.13" y2="457.13"/>
  <text class="cls-9" transform="translate(189.13 460.91)"><tspan x="0" y="0">G</tspan><tspan class="cls-40" x="9.83" y="0">r</tspan><tspan x="14.77" y="0">e</tspan><tspan class="cls-38" x="21.49" y="0">a</tspan><tspan class="cls-18" x="28.91" y="0">t</tspan><tspan x="34.38" y="0">est calendar-year gain</tspan></text>
  <text class="cls-9" transform="translate(412.92 460.91)"><tspan class="cls-26" x="0" y="0">A</tspan><tspan class="cls-37" x="8.23" y="0">v</tspan><tspan class="cls-41" x="14.31" y="0">e</tspan><tspan class="cls-31" x="20.89" y="0">r</tspan><tspan class="cls-41" x="25.72" y="0">ag</tspan><tspan x="40.31" y="0">e</tspan></text>
  <line class="cls-15" x1="501.73" y1="457.13" x2="529.96" y2="457.13"/>
  <text class="cls-9" transform="translate(539.96 460.91)"><tspan x="0" y="0">G</tspan><tspan class="cls-40" x="9.83" y="0">r</tspan><tspan x="14.77" y="0">e</tspan><tspan class="cls-38" x="21.49" y="0">a</tspan><tspan class="cls-18" x="28.91" y="0">t</tspan><tspan class="cls-24" x="34.38" y="0">est calendar-year loss</tspan></text>
  <line class="cls-12" x1="516.61" y1="213.19" x2="516.61" y2="207.59"/>
  <line class="cls-12" x1="740.62" y1="210.63" x2="740.62" y2="205.04"/>
  <line class="cls-12" x1="815.28" y1="210.05" x2="815.28" y2="204.45"/>
  <g>
    <polygon class="cls-8" points="781.99 418.09 781.99 420.76 786.92 418.09 781.99 418.09"/>
    <polygon class="cls-8" points="119.3 414.35 113.38 417.55 119.3 420.76 119.3 418.09 118.31 418.09 118.31 417.02 119.3 417.02 119.3 414.35"/>
    <rect class="cls-6" x="781.99" y="417.02" width=".99" height="1.07"/>
    <polygon class="cls-8" points="781.99 414.35 781.99 417.02 782.98 417.02 782.98 418.09 786.92 418.09 787.91 417.55 781.99 414.35"/>
    <rect class="cls-6" x="119.3" y="417.02" width="662.68" height="1.07"/>
    <rect class="cls-6" x="118.31" y="417.02" width=".99" height="1.07"/>
  </g>
  <line class="cls-13" x1="43.35" y1="359.26" x2="43.35" y2="116.49"/>
  <line class="cls-13" x1="43.2" y1="237.87" x2="855.9" y2="237.87"/>
  <line class="cls-12" x1="83.2" y1="220.12" x2="83.2" y2="214.53"/>
  <text class="cls-4" transform="translate(67.05 387.08)"><tspan class="cls-36" x="0" y="0">100</tspan><tspan x="20.85" y="0">%</tspan><tspan x="-.81" y="15.6">bonds</tspan></text>
  <text class="cls-2" transform="translate(59.85 419.72)"><tspan x="0" y="0">L</tspan><tspan class="cls-22" x="5.25" y="0">E</tspan><tspan class="cls-23" x="11.07" y="0">S</tspan><tspan x="17.01" y="0">S RISK</tspan></text>
  <line class="cls-11" x1="83.2" y1="264.38" x2="83.2" y2="171.88"/>
  <rect class="cls-42" x="61.36" y="167.55" width="43.69" height="8.74"/>
  <rect class="cls-21" x="61.36" y="260.05" width="43.69" height="8.74"/>
  <circle class="cls-6" cx="83.2" cy="227.78" r="2.91"/>
  <text class="cls-7" transform="translate(56.45 157.89)"><tspan x="0" y="0">3</tspan><tspan class="cls-16" x="10.2" y="0">2</tspan><tspan x="20.31" y="0">.6%</tspan></text>
  <text class="cls-7" transform="translate(52.86 291.59)"><tspan x="0" y="0">–13.1%</tspan></text>
  <text class="cls-5" transform="translate(63.57 218.94)"><tspan x="0" y="0">5.0%</tspan></text>
  <text class="cls-10" transform="translate(142.02 387.08)"><tspan class="cls-30" x="0" y="0">90</tspan><tspan class="cls-28" x="13.96" y="0">%/</tspan><tspan class="cls-28"><tspan x="2.82" y="15.6">10%</tspan></tspan></text>
  <line class="cls-11" x1="157.33" y1="265.59" x2="157.33" y2="174.75"/>
  <rect class="cls-42" x="135.49" y="170.34" width="43.69" height="8.74"/>
  <rect class="cls-21" x="135.49" y="261.21" width="43.69" height="8.74"/>
  <circle class="cls-6" cx="157.33" cy="226.26" r="2.91"/>
  <text class="cls-3" transform="translate(130.71 161.23)"><tspan x="0" y="0">31.2%</tspan></text>
  <text class="cls-7" transform="translate(126.98 291.99)"><tspan x="0" y="0">–13.7%</tspan></text>
  <text class="cls-5" transform="translate(137.7 218.13)"><tspan x="0" y="0">5.8%</tspan></text>
  <line class="cls-12" x1="231.46" y1="217.51" x2="231.46" y2="210.77"/>
  <text class="cls-10" transform="translate(216.15 387.08)"><tspan class="cls-30" x="0" y="0">80</tspan><tspan class="cls-28" x="13.96" y="0">%</tspan><tspan x="24.79" y="0">/</tspan><tspan x="2.59" y="15.6">20%</tspan></text>
  <line class="cls-11" x1="231.46" y1="267.01" x2="231.46" y2="177.59"/>
  <rect class="cls-42" x="209.61" y="173.26" width="43.69" height="8.74"/>
  <rect class="cls-21" x="209.61" y="262.61" width="43.69" height="8.74"/>
  <circle class="cls-6" cx="231.46" cy="224.98" r="2.91"/>
  <text class="cls-3" transform="translate(204.84 164.06)"><tspan x="0" y="0">29.8%</tspan></text>
  <text class="cls-7" transform="translate(201.11 293.26)"><tspan x="0" y="0">–14.4%</tspan></text>
  <text class="cls-5" transform="translate(211.83 217.29)"><tspan x="0" y="0">6.4%</tspan></text>
  <text class="cls-10" transform="translate(290.27 387.08)"><tspan class="cls-30" x="0" y="0">70</tspan><tspan class="cls-28" x="13.96" y="0">%</tspan><tspan x="24.79" y="0">/</tspan><tspan x="2.59" y="15.6">30%</tspan></text>
  <line class="cls-11" x1="305.58" y1="268.22" x2="305.58" y2="180.42"/>
  <rect class="cls-42" x="283.74" y="176.05" width="43.69" height="8.74"/>
  <rect class="cls-21" x="283.74" y="263.89" width="43.69" height="8.74"/>
  <circle class="cls-6" cx="305.58" cy="223.7" r="2.91"/>
  <text class="cls-3" transform="translate(278.97 166.24)"><tspan x="0" y="0">28.4%</tspan></text>
  <text class="cls-7" transform="translate(275.24 294.23)"><tspan x="0" y="0">–15.0%</tspan></text>
  <text class="cls-5" transform="translate(285.96 215.5)"><tspan x="0" y="0">7.1%</tspan></text>
  <text class="cls-10" transform="translate(364.26 387.78)"><tspan class="cls-32" x="0" y="0">60</tspan><tspan x="14.01" y="0">%/</tspan><tspan x="2.73" y="15.6">40%</tspan></text>
  <line class="cls-11" x1="379.71" y1="275.1" x2="379.71" y2="181.43"/>
  <rect class="cls-42" x="357.87" y="177.1" width="43.69" height="8.74"/>
  <rect class="cls-21" x="357.87" y="270.77" width="43.69" height="8.74"/>
  <circle class="cls-6" cx="379.71" cy="222.42" r="2.91"/>
  <text class="cls-3" transform="translate(353.09 167.25)"><tspan x="0" y="0">27.9%</tspan></text>
  <text class="cls-7" transform="translate(349.37 301.6)"><tspan x="0" y="0">–18.4%</tspan></text>
  <text class="cls-5" transform="translate(360.08 215.71)"><tspan x="0" y="0">7.7%</tspan></text>
  <line class="cls-12" x1="602.09" y1="212.21" x2="602.09" y2="205.47"/>
  <text class="cls-10" transform="translate(586.78 387.08)"><tspan class="cls-27" x="0" y="0">30</tspan><tspan class="cls-29" x="13.96" y="0">%</tspan><tspan class="cls-17" x="24.79" y="0">/</tspan><tspan x="2.59" y="15.6">70%</tspan></text>
  <line class="cls-11" x1="602.09" y1="299.99" x2="602.09" y2="154.72"/>
  <rect class="cls-42" x="580.25" y="150.31" width="43.69" height="8.74"/>
  <rect class="cls-21" x="580.25" y="295.58" width="43.69" height="8.74"/>
  <circle class="cls-6" cx="602.09" cy="219.27" r="2.91"/>
  <text class="cls-3" transform="translate(575.48 140.39)"><tspan x="0" y="0">41.1%</tspan></text>
  <text class="cls-7" transform="translate(571.75 326.56)"><tspan x="0" y="0">–30.7%</tspan></text>
  <text class="cls-5" transform="translate(582.47 209.11)"><tspan x="0" y="0">9.2%</tspan></text>
  <text class="cls-10" transform="translate(660.91 387.08)"><tspan class="cls-27" x="0" y="0">20</tspan><tspan class="cls-29" x="13.96" y="0">%</tspan><tspan class="cls-17" x="24.79" y="0">/</tspan><tspan x="2.59" y="15.6">80%</tspan></text>
  <line class="cls-11" x1="676.22" y1="308.48" x2="676.22" y2="146.03"/>
  <rect class="cls-42" x="654.38" y="141.69" width="43.69" height="8.74"/>
  <rect class="cls-21" x="654.38" y="304.08" width="43.69" height="8.74"/>
  <circle class="cls-6" cx="676.22" cy="218.34" r="2.91"/>
  <text class="cls-3" transform="translate(649.6 132.03)"><tspan x="0" y="0">45.4%</tspan></text>
  <text class="cls-7" transform="translate(645.88 335.11)"><tspan x="0" y="0">–34.9%</tspan></text>
  <text class="cls-5" transform="translate(656.59 208.72)"><tspan x="0" y="0">9.7%</tspan></text>
  <text class="cls-10" transform="translate(735.04 387.08)"><tspan class="cls-27" x="0" y="0">10</tspan><tspan class="cls-29" x="13.96" y="0">%</tspan><tspan class="cls-17" x="24.79" y="0">/</tspan><tspan x="2.59" y="15.6">90%</tspan></text>
  <line class="cls-11" x1="750.27" y1="316.78" x2="750.27" y2="137.12"/>
  <rect class="cls-42" x="728.51" y="132.72" width="43.69" height="8.74"/>
  <rect class="cls-21" x="728.51" y="312.35" width="43.69" height="8.74"/>
  <circle class="cls-6" cx="750.35" cy="217.53" r="2.91"/>
  <text class="cls-3" transform="translate(723.73 123.04)"><tspan x="0" y="0">49.8%</tspan></text>
  <text class="cls-7" transform="translate(720.01 343.57)"><tspan x="0" y="0">–39.0%</tspan></text>
  <text class="cls-5" transform="translate(725.9 205.34)"><tspan x="0" y="0">10.1%</tspan></text>
  <text class="cls-4" transform="translate(808.31 388.13)"><tspan class="cls-32" x="0" y="0">100</tspan><tspan class="cls-25" x="20.88" y="0">%</tspan><tspan x="-2.18" y="15.6">stocks</tspan></text>
  <text class="cls-2" transform="translate(799.61 421.68)"><tspan class="cls-43" x="0" y="0">M</tspan><tspan class="cls-39" x="8.13" y="0">O</tspan><tspan class="cls-20" x="15.38" y="0">R</tspan><tspan x="21.33" y="0">E RISK</tspan></text>
  <line class="cls-11" x1="824.47" y1="325.13" x2="824.47" y2="128.22"/>
  <rect class="cls-42" x="802.64" y="123.86" width="43.69" height="8.74"/>
  <rect class="cls-21" x="802.64" y="320.74" width="43.69" height="8.74"/>
  <circle class="cls-6" cx="824.48" cy="216.71" r="2.91"/>
  <text class="cls-3" transform="translate(797.86 113.98)"><tspan x="0" y="0">54.2%</tspan></text>
  <text class="cls-7" transform="translate(794.13 351.16)"><tspan x="0" y="0">–43.1%</tspan></text>
  <text class="cls-5" transform="translate(800.03 206.83)"><tspan x="0" y="0">10.5%</tspan></text>
  <text class="cls-10" transform="translate(3.93 363.7)"><tspan x="0" y="0">–60%</tspan></text>
  <text class="cls-10" transform="translate(17.9 242.29)"><tspan x="0" y="0">0%</tspan></text>
  <text class="cls-10" transform="translate(10.72 120.88)"><tspan x="0" y="0">60%</tspan></text>
  <line class="cls-11" x1="453.84" y1="283.4" x2="453.84" y2="172.53"/>
  <rect class="cls-42" x="432" y="168.13" width="43.69" height="8.74"/>
  <rect class="cls-21" x="432" y="279.04" width="43.69" height="8.74"/>
  <circle class="cls-6" cx="453.84" cy="221.25" r="2.91"/>
  <text class="cls-3" transform="translate(427.22 159)"><tspan x="0" y="0">32.3%</tspan></text>
  <text class="cls-7" transform="translate(423.5 309.63)"><tspan x="0" y="0">–22.5%</tspan></text>
  <text class="cls-5" transform="translate(434.21 214.56)"><tspan x="0" y="0">8.2%</tspan></text>
  <text class="cls-4" transform="translate(418.92 387.05)"><tspan class="cls-19" x="0" y="0">50</tspan><tspan x="15.25" y="0">% bonds/</tspan><tspan x="1.77" y="15.6">50% stocks</tspan></text>
  <line class="cls-11" x1="527.97" y1="291.7" x2="527.97" y2="163.63"/>
  <rect class="cls-42" x="506.12" y="159.28" width="43.69" height="8.74"/>
  <rect class="cls-21" x="506.12" y="287.31" width="43.69" height="8.74"/>
  <circle class="cls-6" cx="527.97" cy="220.21" r="2.91"/>
  <text class="cls-3" transform="translate(501.35 150.09)"><tspan x="0" y="0">36.7%</tspan></text>
  <text class="cls-7" transform="translate(497.62 318.09)"><tspan x="0" y="0">–26.6%</tspan></text>
  <text class="cls-5" transform="translate(508.34 210.62)"><tspan x="0" y="0">8.8%</tspan></text>
  <text class="cls-10" transform="translate(512.63 387.78)"><tspan class="cls-35" x="0" y="0">40</tspan><tspan class="cls-34" x="13.99" y="0">%</tspan><tspan class="cls-33" x="24.84" y="0">/</tspan><tspan x="1.15" y="15.6">60% </tspan></text>
  <text class="cls-1" transform="translate(95.85 32.97)"><tspan x="0" y="0">Range of calendar-year returns (1926-2024)</tspan></text>
  <circle class="cls-6" cx="399.14" cy="457.26" r="3.95"/>
</svg>